<?xml version="1.0" standalone="no"?>
<!DOCTYPE svg PUBLIC "-//W3C//DTD SVG 20010904//EN"
 "http://www.w3.org/TR/2001/REC-SVG-20010904/DTD/svg10.dtd">
<svg version="1.0" xmlns="http://www.w3.org/2000/svg"
 width="1200.000000pt" height="1200.000000pt" viewBox="0 0 1200.000000 1200.000000"
 preserveAspectRatio="xMidYMid meet">
<metadata>
Created by potrace 1.16, written by Peter Selinger 2001-2019
</metadata>
<g transform="translate(0.000000,1200.000000) scale(0.100000,-0.100000)"
fill="#000000" stroke="none">
<path d="M0 6000 l0 -6000 6000 0 6000 0 0 6000 0 6000 -6000 0 -6000 0 0
-6000z m2873 -66 c175 -45 285 -163 323 -348 12 -56 14 -188 12 -750 -3 -678
-3 -681 -26 -740 -33 -88 -66 -138 -121 -189 -62 -55 -120 -83 -212 -102 -89
-19 -179 -19 -268 0 -92 19 -150 47 -212 102 -55 51 -88 101 -121 189 -23 59
-23 62 -26 740 -3 742 -2 760 53 876 31 67 108 149 168 180 110 57 301 76 430
42z m3551 0 c160 -41 262 -148 306 -320 15 -62 20 -113 20 -236 l0 -158 -155
0 -155 0 0 158 c0 144 -2 160 -23 196 -43 77 -140 103 -222 60 -50 -26 -71
-62 -84 -144 -14 -87 -14 -1153 0 -1240 16 -103 73 -160 158 -160 62 0 117 27
143 69 21 33 23 50 28 236 l5 200 153 3 152 3 0 -190 c0 -209 -12 -295 -56
-387 -69 -146 -229 -233 -429 -233 -141 0 -253 39 -336 115 -61 58 -90 105
-121 199 l-23 70 0 695 c0 652 1 699 19 755 54 173 146 266 307 309 73 20 236
20 313 0z m1177 -2 c124 -35 210 -102 266 -209 59 -114 58 -95 58 -858 0 -658
-1 -703 -19 -755 -42 -125 -123 -223 -221 -269 -103 -48 -257 -63 -382 -37
-88 19 -130 37 -189 82 -60 46 -75 64 -113 135 -60 111 -61 119 -61 850 0 633
1 670 20 744 43 168 140 268 305 316 84 25 249 25 336 1z m-3749 -43 c5 -11
40 -145 79 -297 39 -153 98 -383 131 -512 33 -129 67 -263 75 -297 8 -35 19
-63 24 -63 5 0 9 235 9 583 0 320 4 588 9 595 9 15 268 19 282 5 5 -5 8 -465
7 -1039 l-3 -1029 -169 0 -170 0 -23 90 c-13 50 -51 196 -84 325 -33 129 -71
276 -84 325 -13 50 -44 169 -69 265 -24 96 -61 236 -80 312 -20 75 -36 139
-36 142 0 3 -4 6 -10 6 -6 0 -11 -256 -12 -732 l-3 -733 -142 -3 -143 -3 0
1039 c0 571 2 1041 4 1043 2 2 93 3 202 2 193 -2 198 -3 206 -24z m1762 15 c9
-23 7 -257 -2 -271 -6 -10 -79 -13 -287 -15 l-280 -3 -3 -272 -2 -273 227 -2
228 -3 0 -145 0 -145 -225 -5 -225 -5 -3 -317 c-1 -175 -1 -319 0 -320 2 -1
131 -5 288 -8 l285 -5 0 -140 0 -140 -447 -3 -448 -2 0 1045 0 1045 444 0
c396 0 445 -2 450 -16z m2864 -1033 l2 -1041 -160 0 -160 0 0 1038 c0 571 2
1041 4 1043 2 2 73 3 158 2 l153 -2 3 -1040z m688 949 c12 -47 63 -247 114
-445 51 -198 109 -425 129 -504 20 -79 42 -146 48 -148 10 -4 13 123 15 592
l3 596 140 0 140 0 3 -1040 2 -1041 -169 0 -169 0 -15 58 c-8 31 -45 174 -81
317 -37 143 -76 294 -88 335 -11 41 -46 179 -79 305 -32 127 -71 279 -87 339
-15 60 -33 111 -40 114 -9 3 -12 -166 -12 -732 l0 -736 -145 0 -145 0 0 1038
c0 571 2 1041 4 1043 2 2 96 2 208 -1 l203 -5 21 -85z"/>
<path d="M2653 5643 c-61 -21 -89 -59 -102 -140 -8 -47 -11 -252 -9 -673 3
-600 3 -605 25 -653 17 -38 31 -52 65 -67 92 -42 194 -12 232 69 21 45 21 58
24 651 3 653 -1 718 -44 769 -23 28 -99 62 -133 60 -9 0 -35 -7 -58 -16z"/>
<path d="M7377 5646 c-50 -19 -83 -50 -99 -95 -10 -28 -13 -184 -13 -686 0
-640 0 -651 21 -690 60 -114 239 -113 296 3 l23 47 3 599 c3 626 -1 714 -38
766 -38 54 -128 80 -193 56z"/>
</g>
</svg>
